<?xml version="1.0" encoding="UTF-8" standalone="no"?>
<svg
   xmlns:dc="http://purl.org/dc/elements/1.1/"
   xmlns:cc="http://creativecommons.org/ns#"
   xmlns:rdf="http://www.w3.org/1999/02/22-rdf-syntax-ns#"
   xmlns:svg="http://www.w3.org/2000/svg"
   xmlns="http://www.w3.org/2000/svg"
   xmlns:sodipodi="http://sodipodi.sourceforge.net/DTD/sodipodi-0.dtd"
   xmlns:inkscape="http://www.inkscape.org/namespaces/inkscape"
   inkscape:export-ydpi="768"
   inkscape:export-xdpi="768"
   inkscape:export-filename="C:\Users\RainBoyz\Desktop\Final\9. Prison.png"
   width="48pt"
   height="48pt"
   viewBox="0 0 16.933334 16.933333"
   version="1.1"
   id="svg979"
   inkscape:version="1.0 (4035a4fb49, 2020-05-01)"
   sodipodi:docname="10. Siren.svg">
  <defs
     id="defs973" />
  <sodipodi:namedview
     id="base"
     pagecolor="#ffffff"
     bordercolor="#666666"
     borderopacity="1.0"
     inkscape:pageopacity="0.0"
     inkscape:pageshadow="2"
     inkscape:zoom="6.0435533"
     inkscape:cx="-3.5368154"
     inkscape:cy="21.311583"
     inkscape:document-units="pt"
     inkscape:current-layer="layer1"
     showgrid="false"
     units="pt"
     inkscape:window-width="1366"
     inkscape:window-height="715"
     inkscape:window-x="-8"
     inkscape:window-y="-8"
     inkscape:window-maximized="1"
     inkscape:document-rotation="0"
     inkscape:snap-bbox="true"
     inkscape:bbox-nodes="true"
     inkscape:snap-nodes="false">
    <inkscape:grid
       type="xygrid"
       id="grid1526" />
    <sodipodi:guide
       position="0.97013909,15.963209"
       orientation="56.666615,0"
       id="guide1528"
       inkscape:locked="false" />
    <sodipodi:guide
       position="0.97013909,0.97016731"
       orientation="0,56.666667"
       id="guide1530"
       inkscape:locked="false" />
    <sodipodi:guide
       position="15.963195,0.97016731"
       orientation="-56.666615,0"
       id="guide1532"
       inkscape:locked="false" />
    <sodipodi:guide
       position="15.963195,15.963209"
       orientation="0,-56.666667"
       id="guide1534"
       inkscape:locked="false" />
  </sodipodi:namedview>
  <metadata
     id="metadata976">
    <rdf:RDF>
      <cc:Work
         rdf:about="">
        <dc:format>image/svg+xml</dc:format>
        <dc:type
           rdf:resource="http://purl.org/dc/dcmitype/StillImage" />
        <dc:title></dc:title>
      </cc:Work>
    </rdf:RDF>
  </metadata>
  <g
     inkscape:label="Layer 1"
     inkscape:groupmode="layer"
     id="layer1"
     transform="translate(0,-280.06668)">
    <g
       transform="matrix(1.2195873,0,0,1.2195873,-52.971966,-65.940981)"
       id="g632">
      <g
         id="g1133">
        <path
           sodipodi:nodetypes="cccsscccc"
           id="path1207"
           d="m 48.722656,285.90414 c -0.742781,0 -1.03191,0.36013 -1.098565,0.7202 l -1.560417,5.73364 c -0.06763,0.36381 0.226035,0.87349 0.940232,0.87349 H 53.75 c 0.714196,0 0.926331,-0.50968 0.858701,-0.86874 -0.0012,-0.003 -1.086811,-5.35906 -1.086811,-5.35906 -0.13721,-0.73963 -0.550588,-1.09977 -1.293368,-1.09977 z"
           style="color:#000000;font-style:normal;font-variant:normal;font-weight:normal;font-stretch:normal;font-size:medium;line-height:normal;font-family:sans-serif;font-variant-ligatures:normal;font-variant-position:normal;font-variant-caps:normal;font-variant-numeric:normal;font-variant-alternates:normal;font-variant-east-asian:normal;font-feature-settings:normal;font-variation-settings:normal;text-indent:0;text-align:start;text-decoration:none;text-decoration-line:none;text-decoration-style:solid;text-decoration-color:#000000;letter-spacing:normal;word-spacing:normal;text-transform:none;writing-mode:lr-tb;direction:ltr;text-orientation:mixed;dominant-baseline:auto;baseline-shift:baseline;text-anchor:start;white-space:normal;shape-padding:0;shape-margin:0;inline-size:0;clip-rule:nonzero;display:inline;overflow:visible;visibility:visible;opacity:1;isolation:auto;mix-blend-mode:normal;color-interpolation:sRGB;color-interpolation-filters:linearRGB;solid-color:#000000;solid-opacity:1;vector-effect:none;fill:#dc166d;fill-opacity:1;fill-rule:nonzero;stroke:none;stroke-width:0.529167;stroke-linecap:round;stroke-linejoin:round;stroke-miterlimit:4;stroke-dasharray:none;stroke-dashoffset:0;stroke-opacity:1;color-rendering:auto;image-rendering:auto;shape-rendering:auto;text-rendering:auto;enable-background:accumulate;stop-color:#000000;stop-opacity:1" />
        <path
           id="path1251"
           d="m 49.054688,288.63086 c -0.289108,0 -0.529293,0.24018 -0.529297,0.5293 v 0.79492 c 4e-6,0.28911 0.240177,0.52734 0.529297,0.52734 h 0.527343 c 0.28912,0 0.529295,-0.23823 0.529297,-0.52734 v -0.79492 c -2e-6,-0.28912 -0.24019,-0.5293 -0.529297,-0.5293 z"
           style="color:#000000;font-style:normal;font-variant:normal;font-weight:normal;font-stretch:normal;font-size:medium;line-height:normal;font-family:sans-serif;font-variant-ligatures:normal;font-variant-position:normal;font-variant-caps:normal;font-variant-numeric:normal;font-variant-alternates:normal;font-variant-east-asian:normal;font-feature-settings:normal;font-variation-settings:normal;text-indent:0;text-align:start;text-decoration:none;text-decoration-line:none;text-decoration-style:solid;text-decoration-color:#000000;letter-spacing:normal;word-spacing:normal;text-transform:none;writing-mode:lr-tb;direction:ltr;text-orientation:mixed;dominant-baseline:auto;baseline-shift:baseline;text-anchor:start;white-space:normal;shape-padding:0;shape-margin:0;inline-size:0;clip-rule:nonzero;display:inline;overflow:visible;visibility:visible;opacity:1;isolation:auto;mix-blend-mode:normal;color-interpolation:sRGB;color-interpolation-filters:linearRGB;solid-color:#000000;solid-opacity:1;vector-effect:none;fill:#f23191;fill-opacity:1;fill-rule:nonzero;stroke:none;stroke-width:0.529167;stroke-linecap:round;stroke-linejoin:round;stroke-miterlimit:4;stroke-dasharray:none;stroke-dashoffset:0;stroke-opacity:1;color-rendering:auto;image-rendering:auto;shape-rendering:auto;text-rendering:auto;enable-background:accumulate;stop-color:#000000;stop-opacity:1" />
        <path
           id="path1247"
           d="m 51.169922,288.63086 c -0.289107,0 -0.529293,0.24018 -0.529297,0.5293 v 0.79492 c 4e-6,0.28911 0.240178,0.52734 0.529297,0.52734 h 0.529297 c 0.289119,0 0.529293,-0.23823 0.529297,-0.52734 v -0.79492 c -4e-6,-0.28912 -0.24019,-0.5293 -0.529297,-0.5293 z"
           style="color:#000000;font-style:normal;font-variant:normal;font-weight:normal;font-stretch:normal;font-size:medium;line-height:normal;font-family:sans-serif;font-variant-ligatures:normal;font-variant-position:normal;font-variant-caps:normal;font-variant-numeric:normal;font-variant-alternates:normal;font-variant-east-asian:normal;font-feature-settings:normal;font-variation-settings:normal;text-indent:0;text-align:start;text-decoration:none;text-decoration-line:none;text-decoration-style:solid;text-decoration-color:#000000;letter-spacing:normal;word-spacing:normal;text-transform:none;writing-mode:lr-tb;direction:ltr;text-orientation:mixed;dominant-baseline:auto;baseline-shift:baseline;text-anchor:start;white-space:normal;shape-padding:0;shape-margin:0;inline-size:0;clip-rule:nonzero;display:inline;overflow:visible;visibility:visible;opacity:1;isolation:auto;mix-blend-mode:normal;color-interpolation:sRGB;color-interpolation-filters:linearRGB;solid-color:#000000;solid-opacity:1;vector-effect:none;fill:#f23191;fill-opacity:1;fill-rule:nonzero;stroke:none;stroke-width:0.529167;stroke-linecap:round;stroke-linejoin:round;stroke-miterlimit:4;stroke-dasharray:none;stroke-dashoffset:0;stroke-opacity:1;color-rendering:auto;image-rendering:auto;shape-rendering:auto;text-rendering:auto;enable-background:accumulate;stop-color:#000000;stop-opacity:1" />
        <path
           id="path1267"
           d="m 50.376953,287.9082 c -0.435245,0 -0.794922,0.35773 -0.794922,0.79297 v 4.43164 a 0.26460996,0.26460996 0 0 0 0.265625,0.26563 l 1.058594,-0.004 a 0.26460996,0.26460996 0 0 0 0.263672,-0.26562 v -4.42774 c 0,-0.43524 -0.357724,-0.79297 -0.792969,-0.79297 z"
           style="color:#000000;font-style:normal;font-variant:normal;font-weight:normal;font-stretch:normal;font-size:medium;line-height:normal;font-family:sans-serif;font-variant-ligatures:normal;font-variant-position:normal;font-variant-caps:normal;font-variant-numeric:normal;font-variant-alternates:normal;font-variant-east-asian:normal;font-feature-settings:normal;font-variation-settings:normal;text-indent:0;text-align:start;text-decoration:none;text-decoration-line:none;text-decoration-style:solid;text-decoration-color:#000000;letter-spacing:normal;word-spacing:normal;text-transform:none;writing-mode:lr-tb;direction:ltr;text-orientation:mixed;dominant-baseline:auto;baseline-shift:baseline;text-anchor:start;white-space:normal;shape-padding:0;shape-margin:0;inline-size:0;clip-rule:nonzero;display:inline;overflow:visible;visibility:visible;opacity:1;isolation:auto;mix-blend-mode:normal;color-interpolation:sRGB;color-interpolation-filters:linearRGB;solid-color:#000000;solid-opacity:1;vector-effect:none;fill:#9b1d5a;fill-opacity:1;fill-rule:nonzero;stroke:none;stroke-width:0.529167;stroke-linecap:round;stroke-linejoin:round;stroke-miterlimit:4;stroke-dasharray:none;stroke-dashoffset:0;stroke-opacity:1;color-rendering:auto;image-rendering:auto;shape-rendering:auto;text-rendering:auto;enable-background:accumulate;stop-color:#000000;stop-opacity:1" />
        <path
           id="path1243"
           d="m 49.318359,286.7793 c -0.739425,0 -1.377269,0.52754 -1.515625,1.2539 l -0.603515,2.23633 a 0.2645835,0.2645835 0 0 0 0.1875,0.32422 0.2645835,0.2645835 0 0 0 0.324219,-0.18555 l 0.607421,-2.25586 a 0.26460996,0.26460996 0 0 0 0.0039,-0.0195 c 0.09144,-0.48007 0.507389,-0.82422 0.996093,-0.82422 a 0.2645835,0.2645835 0 0 0 0.263672,-0.26562 0.2645835,0.2645835 0 0 0 -0.263672,-0.26367 z"
           style="color:#000000;font-style:normal;font-variant:normal;font-weight:normal;font-stretch:normal;font-size:medium;line-height:normal;font-family:sans-serif;font-variant-ligatures:normal;font-variant-position:normal;font-variant-caps:normal;font-variant-numeric:normal;font-variant-alternates:normal;font-variant-east-asian:normal;font-feature-settings:normal;font-variation-settings:normal;text-indent:0;text-align:start;text-decoration:none;text-decoration-line:none;text-decoration-style:solid;text-decoration-color:#000000;letter-spacing:normal;word-spacing:normal;text-transform:none;writing-mode:lr-tb;direction:ltr;text-orientation:mixed;dominant-baseline:auto;baseline-shift:baseline;text-anchor:start;white-space:normal;shape-padding:0;shape-margin:0;inline-size:0;clip-rule:nonzero;display:inline;overflow:visible;visibility:visible;opacity:1;isolation:auto;mix-blend-mode:normal;color-interpolation:sRGB;color-interpolation-filters:linearRGB;solid-color:#000000;solid-opacity:1;vector-effect:none;fill:#f23191;fill-opacity:1;fill-rule:nonzero;stroke:none;stroke-width:0.529167;stroke-linecap:round;stroke-linejoin:round;stroke-miterlimit:4;stroke-dasharray:none;stroke-dashoffset:0;stroke-opacity:1;color-rendering:auto;image-rendering:auto;shape-rendering:auto;text-rendering:auto;enable-background:accumulate;stop-color:#000000;stop-opacity:1" />
        <path
           id="path1239"
           d="m 50.244141,286.7793 a 0.2645835,0.2645835 0 0 0 -0.263672,0.26367 0.2645835,0.2645835 0 0 0 0.263672,0.26562 h 0.396484 a 0.2645835,0.2645835 0 0 0 0.265625,-0.26562 0.2645835,0.2645835 0 0 0 -0.265625,-0.26367 z"
           style="color:#000000;font-style:normal;font-variant:normal;font-weight:normal;font-stretch:normal;font-size:medium;line-height:normal;font-family:sans-serif;font-variant-ligatures:normal;font-variant-position:normal;font-variant-caps:normal;font-variant-numeric:normal;font-variant-alternates:normal;font-variant-east-asian:normal;font-feature-settings:normal;font-variation-settings:normal;text-indent:0;text-align:start;text-decoration:none;text-decoration-line:none;text-decoration-style:solid;text-decoration-color:#000000;letter-spacing:normal;word-spacing:normal;text-transform:none;writing-mode:lr-tb;direction:ltr;text-orientation:mixed;dominant-baseline:auto;baseline-shift:baseline;text-anchor:start;white-space:normal;shape-padding:0;shape-margin:0;inline-size:0;clip-rule:nonzero;display:inline;overflow:visible;visibility:visible;opacity:1;isolation:auto;mix-blend-mode:normal;color-interpolation:sRGB;color-interpolation-filters:linearRGB;solid-color:#000000;solid-opacity:1;vector-effect:none;fill:#f23191;fill-opacity:1;fill-rule:nonzero;stroke:none;stroke-width:0.529167;stroke-linecap:round;stroke-linejoin:round;stroke-miterlimit:4;stroke-dasharray:none;stroke-dashoffset:0;stroke-opacity:1;color-rendering:auto;image-rendering:auto;shape-rendering:auto;text-rendering:auto;enable-background:accumulate;stop-color:#000000;stop-opacity:1" />
        <path
           id="path1219"
           d="m 44.67226,287.92261 a 0.25017437,0.25017437 0 0 0 -0.249312,0.25117 0.25017437,0.25017437 0 0 0 0.249312,0.24931 h 1.301965 a 0.25017437,0.25017437 0 0 0 0.249312,-0.24931 0.25017437,0.25017437 0 0 0 -0.249312,-0.25117 z"
           style="color:#000000;font-style:normal;font-variant:normal;font-weight:normal;font-stretch:normal;font-size:medium;line-height:normal;font-family:sans-serif;font-variant-ligatures:normal;font-variant-position:normal;font-variant-caps:normal;font-variant-numeric:normal;font-variant-alternates:normal;font-variant-east-asian:normal;font-feature-settings:normal;font-variation-settings:normal;text-indent:0;text-align:start;text-decoration:none;text-decoration-line:none;text-decoration-style:solid;text-decoration-color:#000000;letter-spacing:normal;word-spacing:normal;text-transform:none;writing-mode:lr-tb;direction:ltr;text-orientation:mixed;dominant-baseline:auto;baseline-shift:baseline;text-anchor:start;white-space:normal;shape-padding:0;shape-margin:0;inline-size:0;clip-rule:nonzero;display:inline;overflow:visible;visibility:visible;opacity:1;isolation:auto;mix-blend-mode:normal;color-interpolation:sRGB;color-interpolation-filters:linearRGB;solid-color:#000000;solid-opacity:1;vector-effect:none;fill:#d41669;fill-opacity:1;fill-rule:nonzero;stroke:none;stroke-width:0.500349;stroke-linecap:round;stroke-linejoin:round;stroke-miterlimit:4;stroke-dasharray:none;stroke-dashoffset:0;stroke-opacity:1;color-rendering:auto;image-rendering:auto;shape-rendering:auto;text-rendering:auto;enable-background:accumulate;stop-color:#000000;stop-opacity:1" />
        <path
           id="path1215"
           d="m 44.73629,285.59217 a 0.24296329,0.24296329 0 0 0 -0.184733,0.10762 0.24296329,0.24296329 0 0 0 0.06636,0.33718 l 1.458137,0.97209 a 0.24296329,0.24296329 0 0 0 0.337184,-0.0681 0.24296329,0.24296329 0 0 0 -0.06815,-0.33717 l -1.458138,-0.9703 a 0.24296329,0.24296329 0 0 0 -0.150656,-0.0412 z"
           style="color:#000000;font-style:normal;font-variant:normal;font-weight:normal;font-stretch:normal;font-size:medium;line-height:normal;font-family:sans-serif;font-variant-ligatures:normal;font-variant-position:normal;font-variant-caps:normal;font-variant-numeric:normal;font-variant-alternates:normal;font-variant-east-asian:normal;font-feature-settings:normal;font-variation-settings:normal;text-indent:0;text-align:start;text-decoration:none;text-decoration-line:none;text-decoration-style:solid;text-decoration-color:#000000;letter-spacing:normal;word-spacing:normal;text-transform:none;writing-mode:lr-tb;direction:ltr;text-orientation:mixed;dominant-baseline:auto;baseline-shift:baseline;text-anchor:start;white-space:normal;shape-padding:0;shape-margin:0;inline-size:0;clip-rule:nonzero;display:inline;overflow:visible;visibility:visible;opacity:1;isolation:auto;mix-blend-mode:normal;color-interpolation:sRGB;color-interpolation-filters:linearRGB;solid-color:#000000;solid-opacity:1;vector-effect:none;fill:#d41669;fill-opacity:1;fill-rule:nonzero;stroke:none;stroke-width:0.485927;stroke-linecap:round;stroke-linejoin:round;stroke-miterlimit:4;stroke-dasharray:none;stroke-dashoffset:0;stroke-opacity:1;color-rendering:auto;image-rendering:auto;shape-rendering:auto;text-rendering:auto;enable-background:accumulate;stop-color:#000000;stop-opacity:1" />
        <path
           id="path1223"
           d="m 45.693079,289.26118 a 0.25239921,0.25239921 0 0 0 -0.102475,0.0336 l -1.194299,0.68937 a 0.25239921,0.25239921 0 0 0 -0.09129,0.3447 0.25239921,0.25239921 0 0 0 0.344688,0.0913 l 1.1943,-0.68938 a 0.25239921,0.25239921 0 0 0 0.09316,-0.34469 0.25239921,0.25239921 0 0 0 -0.244077,-0.12484 z"
           style="color:#000000;font-style:normal;font-variant:normal;font-weight:normal;font-stretch:normal;font-size:medium;line-height:normal;font-family:sans-serif;font-variant-ligatures:normal;font-variant-position:normal;font-variant-caps:normal;font-variant-numeric:normal;font-variant-alternates:normal;font-variant-east-asian:normal;font-feature-settings:normal;font-variation-settings:normal;text-indent:0;text-align:start;text-decoration:none;text-decoration-line:none;text-decoration-style:solid;text-decoration-color:#000000;letter-spacing:normal;word-spacing:normal;text-transform:none;writing-mode:lr-tb;direction:ltr;text-orientation:mixed;dominant-baseline:auto;baseline-shift:baseline;text-anchor:start;white-space:normal;shape-padding:0;shape-margin:0;inline-size:0;clip-rule:nonzero;display:inline;overflow:visible;visibility:visible;opacity:1;isolation:auto;mix-blend-mode:normal;color-interpolation:sRGB;color-interpolation-filters:linearRGB;solid-color:#000000;solid-opacity:1;vector-effect:none;fill:#d41669;fill-opacity:1;fill-rule:nonzero;stroke:none;stroke-width:0.504798;stroke-linecap:round;stroke-linejoin:round;stroke-miterlimit:4;stroke-dasharray:none;stroke-dashoffset:0;stroke-opacity:1;color-rendering:auto;image-rendering:auto;shape-rendering:auto;text-rendering:auto;enable-background:accumulate;stop-color:#000000;stop-opacity:1" />
        <path
           id="path1227"
           d="m 54.779682,287.92261 a 0.25017437,0.25017437 0 0 0 -0.249312,0.25117 0.25017437,0.25017437 0 0 0 0.249312,0.24931 h 1.301965 a 0.25017437,0.25017437 0 0 0 0.249311,-0.24931 0.25017437,0.25017437 0 0 0 -0.249311,-0.25117 z"
           style="color:#000000;font-style:normal;font-variant:normal;font-weight:normal;font-stretch:normal;font-size:medium;line-height:normal;font-family:sans-serif;font-variant-ligatures:normal;font-variant-position:normal;font-variant-caps:normal;font-variant-numeric:normal;font-variant-alternates:normal;font-variant-east-asian:normal;font-feature-settings:normal;font-variation-settings:normal;text-indent:0;text-align:start;text-decoration:none;text-decoration-line:none;text-decoration-style:solid;text-decoration-color:#000000;letter-spacing:normal;word-spacing:normal;text-transform:none;writing-mode:lr-tb;direction:ltr;text-orientation:mixed;dominant-baseline:auto;baseline-shift:baseline;text-anchor:start;white-space:normal;shape-padding:0;shape-margin:0;inline-size:0;clip-rule:nonzero;display:inline;overflow:visible;visibility:visible;opacity:1;isolation:auto;mix-blend-mode:normal;color-interpolation:sRGB;color-interpolation-filters:linearRGB;solid-color:#000000;solid-opacity:1;vector-effect:none;fill:#d41669;fill-opacity:1;fill-rule:nonzero;stroke:none;stroke-width:0.500349;stroke-linecap:round;stroke-linejoin:round;stroke-miterlimit:4;stroke-dasharray:none;stroke-dashoffset:0;stroke-opacity:1;color-rendering:auto;image-rendering:auto;shape-rendering:auto;text-rendering:auto;enable-background:accumulate;stop-color:#000000;stop-opacity:1" />
        <path
           id="path1231"
           d="m 56.008662,285.58499 a 0.24536387,0.24536387 0 0 0 -0.137654,0.0416 l -1.472545,0.97988 a 0.24536387,0.24536387 0 0 0 -0.06702,0.34051 0.24536387,0.24536387 0 0 0 0.340515,0.0688 l 1.472545,-0.98169 a 0.24536387,0.24536387 0 0 0 0.06702,-0.34052 0.24536387,0.24536387 0 0 0 -0.20286,-0.10868 z"
           style="color:#000000;font-style:normal;font-variant:normal;font-weight:normal;font-stretch:normal;font-size:medium;line-height:normal;font-family:sans-serif;font-variant-ligatures:normal;font-variant-position:normal;font-variant-caps:normal;font-variant-numeric:normal;font-variant-alternates:normal;font-variant-east-asian:normal;font-feature-settings:normal;font-variation-settings:normal;text-indent:0;text-align:start;text-decoration:none;text-decoration-line:none;text-decoration-style:solid;text-decoration-color:#000000;letter-spacing:normal;word-spacing:normal;text-transform:none;writing-mode:lr-tb;direction:ltr;text-orientation:mixed;dominant-baseline:auto;baseline-shift:baseline;text-anchor:start;white-space:normal;shape-padding:0;shape-margin:0;inline-size:0;clip-rule:nonzero;display:inline;overflow:visible;visibility:visible;opacity:1;isolation:auto;mix-blend-mode:normal;color-interpolation:sRGB;color-interpolation-filters:linearRGB;solid-color:#000000;solid-opacity:1;vector-effect:none;fill:#d41669;fill-opacity:1;fill-rule:nonzero;stroke:none;stroke-width:0.490728;stroke-linecap:round;stroke-linejoin:round;stroke-miterlimit:4;stroke-dasharray:none;stroke-dashoffset:0;stroke-opacity:1;color-rendering:auto;image-rendering:auto;shape-rendering:auto;text-rendering:auto;enable-background:accumulate;stop-color:#000000;stop-opacity:1" />
        <path
           id="path1235"
           d="m 55.058233,289.2737 a 0.24631783,0.24631783 0 0 0 -0.221831,0.12364 0.24631783,0.24631783 0 0 0 0.09092,0.33638 l 1.165524,0.67278 a 0.24631783,0.24631783 0 0 0 0.336383,-0.0891 0.24631783,0.24631783 0 0 0 -0.09092,-0.33638 l -1.165524,-0.67276 a 0.24631783,0.24631783 0 0 0 -0.114552,-0.0345 z"
           style="color:#000000;font-style:normal;font-variant:normal;font-weight:normal;font-stretch:normal;font-size:medium;line-height:normal;font-family:sans-serif;font-variant-ligatures:normal;font-variant-position:normal;font-variant-caps:normal;font-variant-numeric:normal;font-variant-alternates:normal;font-variant-east-asian:normal;font-feature-settings:normal;font-variation-settings:normal;text-indent:0;text-align:start;text-decoration:none;text-decoration-line:none;text-decoration-style:solid;text-decoration-color:#000000;letter-spacing:normal;word-spacing:normal;text-transform:none;writing-mode:lr-tb;direction:ltr;text-orientation:mixed;dominant-baseline:auto;baseline-shift:baseline;text-anchor:start;white-space:normal;shape-padding:0;shape-margin:0;inline-size:0;clip-rule:nonzero;display:inline;overflow:visible;visibility:visible;opacity:1;isolation:auto;mix-blend-mode:normal;color-interpolation:sRGB;color-interpolation-filters:linearRGB;solid-color:#000000;solid-opacity:1;vector-effect:none;fill:#d41669;fill-opacity:1;fill-rule:nonzero;stroke:none;stroke-width:0.492636;stroke-linecap:round;stroke-linejoin:round;stroke-miterlimit:4;stroke-dasharray:none;stroke-dashoffset:0;stroke-opacity:1;color-rendering:auto;image-rendering:auto;shape-rendering:auto;text-rendering:auto;enable-background:accumulate;stop-color:#000000;stop-opacity:1" />
        <path
           d="m 48.722607,285.95118 c -0.547031,0 -0.890327,0.0658 -1.164838,0.51664 0.230103,-0.13834 0.352943,-0.21807 0.635672,-0.21807 h 3.505729 c 0.742778,0 0.9487,0.54349 1.08591,1.28312 l 1.070346,5.13611 c 0.118775,0.53939 -0.125337,0.71654 0.382073,0.61257 0.450644,-0.22051 0.528762,-0.73375 0.477444,-1.00569 -0.299385,-0.0802 -1.242286,-5.27214 -1.242286,-5.27214 -0.13721,-0.73963 -0.501543,-1.05252 -1.24432,-1.05253 z"
           style="color:#000000;font-style:normal;font-variant:normal;font-weight:normal;font-stretch:normal;font-size:medium;line-height:normal;font-family:sans-serif;font-variant-ligatures:normal;font-variant-position:normal;font-variant-caps:normal;font-variant-numeric:normal;font-variant-alternates:normal;font-variant-east-asian:normal;font-feature-settings:normal;font-variation-settings:normal;text-indent:0;text-align:start;text-decoration:none;text-decoration-line:none;text-decoration-style:solid;text-decoration-color:#000000;letter-spacing:normal;word-spacing:normal;text-transform:none;writing-mode:lr-tb;direction:ltr;text-orientation:mixed;dominant-baseline:auto;baseline-shift:baseline;text-anchor:start;white-space:normal;shape-padding:0;shape-margin:0;inline-size:0;clip-rule:nonzero;display:inline;overflow:visible;visibility:visible;opacity:1;isolation:auto;mix-blend-mode:normal;color-interpolation:sRGB;color-interpolation-filters:linearRGB;solid-color:#000000;solid-opacity:1;vector-effect:none;fill:#9b1d5a;fill-opacity:1;fill-rule:nonzero;stroke:none;stroke-width:0.529167;stroke-linecap:round;stroke-linejoin:round;stroke-miterlimit:4;stroke-dasharray:none;stroke-dashoffset:0;stroke-opacity:1;color-rendering:auto;image-rendering:auto;shape-rendering:auto;text-rendering:auto;enable-background:accumulate;stop-color:#000000;stop-opacity:1"
           id="path1064"
           sodipodi:nodetypes="ccsscccccsc" />
        <path
           sodipodi:nodetypes="scssscsssssss"
           id="path1275"
           d="m 45.613281,293.06906 c -0.220486,0 -0.307949,0.0909 -0.522911,0.29102 -0.214962,0.20009 -0.380859,0.31806 -0.380859,0.73562 v 0.44922 c 0,0.41324 0.156436,0.5318 0.36914,0.73367 0.212705,0.20187 0.308661,0.29297 0.53463,0.29297 3.175001,1e-5 6.35039,1e-5 9.525391,0 0.225969,0 0.33407,-0.0911 0.546774,-0.29297 0.212704,-0.20187 0.369141,-0.32043 0.369141,-0.73367 v -0.44922 c 0,-0.41756 -0.165897,-0.53553 -0.38086,-0.73562 -0.214962,-0.20009 -0.314569,-0.29102 -0.535055,-0.29102 z"
           style="color:#000000;font-style:normal;font-variant:normal;font-weight:normal;font-stretch:normal;font-size:medium;line-height:normal;font-family:sans-serif;font-variant-ligatures:normal;font-variant-position:normal;font-variant-caps:normal;font-variant-numeric:normal;font-variant-alternates:normal;font-variant-east-asian:normal;font-feature-settings:normal;font-variation-settings:normal;text-indent:0;text-align:start;text-decoration:none;text-decoration-line:none;text-decoration-style:solid;text-decoration-color:#000000;letter-spacing:normal;word-spacing:normal;text-transform:none;writing-mode:lr-tb;direction:ltr;text-orientation:mixed;dominant-baseline:auto;baseline-shift:baseline;text-anchor:start;white-space:normal;shape-padding:0;shape-margin:0;inline-size:0;clip-rule:nonzero;display:inline;overflow:visible;visibility:visible;opacity:1;isolation:auto;mix-blend-mode:normal;color-interpolation:sRGB;color-interpolation-filters:linearRGB;solid-color:#000000;solid-opacity:1;vector-effect:none;fill:#aabfd0;fill-opacity:1;fill-rule:nonzero;stroke:none;stroke-width:0.529167;stroke-linecap:round;stroke-linejoin:round;stroke-miterlimit:4;stroke-dasharray:none;stroke-dashoffset:0;stroke-opacity:1;color-rendering:auto;image-rendering:auto;shape-rendering:auto;text-rendering:auto;enable-background:accumulate;stop-color:#000000;stop-opacity:1" />
      </g>
      <path
         sodipodi:nodetypes="cccccccccccccccccscccccssssscssssssccccsssscccsccsccsscscssccsccscccsccccccccsccsccsccccccccccccccccssccssccccccccccccccccccccccccccccccssssssssssc"
         d="m 44.687193,285.52682 c -0.0057,-10e-6 -0.01138,1.6e-4 -0.01704,5.2e-4 -0.08172,0.006 -0.156141,0.0491 -0.201538,0.1173 -0.08125,0.12132 -0.04887,0.28552 0.07235,0.3669 l 1.588016,1.05886 c 0.121852,0.0808 0.286182,0.0475 0.366903,-0.0744 0.08095,-0.12172 0.04786,-0.28601 -0.0739,-0.3669 l -1.588016,-1.05678 c -0.04335,-0.0294 -0.09442,-0.0452 -0.146761,-0.0455 z m 11.379152,5.2e-4 c -0.05282,-1.6e-4 -0.10447,0.0155 -0.148312,0.045 l -1.588016,1.05678 c -0.121221,0.0814 -0.153598,0.24559 -0.07235,0.3669 0.08075,0.12226 0.245467,0.15562 0.367419,0.0744 l 1.588015,-1.05886 c 0.121045,-0.0815 0.153186,-0.24572 0.07183,-0.3669 -0.04888,-0.0729 -0.130775,-0.1169 -0.218591,-0.1173 z m -7.343737,0.19327 c -0.742781,0 -1.378461,0.54348 -1.515671,1.28312 l 0.0041,-0.0191 -1.324467,5.00951 c -0.0013,0.007 -0.0027,0.0131 -0.0036,0.0196 -0.05743,0.3096 0.01839,0.60882 0.175699,0.85163 h -0.44546 c -0.220485,0 -0.460965,0.0908 -0.675926,0.29094 -0.214963,0.20009 -0.380857,0.52192 -0.380857,0.93948 v 0.44906 c 0,0.41324 0.156784,0.73554 0.369488,0.93741 0.212704,0.20187 0.461328,0.29301 0.687295,0.29301 3.175003,1e-5 6.350516,1e-5 9.525518,0 0.225968,0 0.47666,-0.0911 0.689364,-0.29301 0.212704,-0.20187 0.36897,-0.52417 0.36897,-0.93741 v -0.44906 c 0,-0.41756 -0.165894,-0.73939 -0.380857,-0.93948 -0.214961,-0.20009 -0.456991,-0.29094 -0.677477,-0.29094 h -0.443383 c 0.157308,-0.24281 0.23313,-0.54203 0.175699,-0.85163 -0.0013,-0.003 -0.0027,-0.007 -0.0041,-0.01 l -1.120852,-5.00021 c -0.13721,-0.73963 -0.774959,-1.28312 -1.517737,-1.28312 z m 0,0.52916 h 3.505729 c 0.485346,0 0.903732,0.35252 0.99632,0.85163 5.29e-4,0.003 0.0013,0.007 0.0021,0.01 l 1.122928,4.99814 c 0.07423,0.40013 -0.214886,0.75603 -0.599447,0.75603 h -2.580207 v -2.3828 h 0.529167 c 0.289118,0 0.529161,-0.23851 0.529166,-0.52762 v -0.79478 c -5e-6,-0.28912 -0.240059,-0.52917 -0.529166,-0.52917 h -0.529167 c -0.0024,0 -0.0048,4.8e-4 -0.0072,5.3e-4 -0.03625,-0.40257 -0.3746,-0.72347 -0.785998,-0.72347 -0.411398,0 -0.751101,0.3209 -0.787548,0.72347 -0.0024,-3e-5 -0.0048,-5.3e-4 -0.0072,-5.3e-4 h -0.5271 c -0.289108,0 -0.52968,0.24005 -0.529685,0.52917 v 0.79478 c 5e-6,0.28911 0.240564,0.52762 0.529685,0.52762 h 0.527097 v 2.3828 h -2.578137 c -0.384561,0 -0.673674,-0.3559 -0.599445,-0.75603 l 1.318265,-4.98832 c 0.0016,-0.006 0.003,-0.013 0.0041,-0.0196 0.09259,-0.49911 0.510456,-0.85163 0.995805,-0.85163 z m 0.595828,0.52969 c -0.739426,0 -1.377312,0.52731 -1.515668,1.25367 l -0.603584,2.23655 c -0.03776,0.14129 0.04626,0.28641 0.187587,0.32401 0.140658,0.0379 0.285496,-0.045 0.324012,-0.18551 l 0.607713,-2.25568 c 0.0013,-0.007 0.0027,-0.0131 0.0036,-0.0196 0.09144,-0.48007 0.507617,-0.82424 0.99632,-0.82424 0.146125,-5.8e-4 0.264121,-0.11949 0.263549,-0.26561 -5.29e-4,-0.14532 -0.118229,-0.26299 -0.263549,-0.26355 z m 0.925526,0 c -0.14532,5.6e-4 -0.262986,0.11823 -0.263552,0.26355 -5.29e-4,0.14612 0.117425,0.26504 0.263552,0.26561 h 0.396875 c 0.146933,5.9e-4 0.266189,-0.11868 0.265615,-0.26561 -5.29e-4,-0.14613 -0.119491,-0.26412 -0.265615,-0.26355 z m -5.60896,1.12861 c -0.146328,2.9e-4 -0.264639,0.11929 -0.264068,0.26562 2.65e-4,0.14572 0.118346,0.26378 0.264068,0.26406 h 1.376658 c 0.145521,-5.5e-4 0.263269,-0.11854 0.263552,-0.26406 5.29e-4,-0.14613 -0.117425,-0.26505 -0.263552,-0.26562 z m 10.107392,0 c -0.146328,2.9e-4 -0.264639,0.11929 -0.264067,0.26562 2.64e-4,0.14572 0.118345,0.26378 0.264067,0.26406 h 1.376662 c 0.14552,-5.8e-4 0.263265,-0.11854 0.263548,-0.26406 5.3e-4,-0.14613 -0.117424,-0.26505 -0.263548,-0.26562 z m -4.365625,0.52968 c 0.149257,0 0.264068,0.11429 0.264068,0.26355 v 4.16409 h -0.529686 v -4.16409 c 0,-0.14926 0.116362,-0.26355 0.265618,-0.26355 z m -1.321882,0.72244 h 0.527098 v 0.79478 h -0.527098 z m 2.115116,0 h 0.529167 v 0.79478 h -0.529167 z m 3.823539,0.0703 c -0.08991,0.005 -0.171289,0.0547 -0.216009,0.13281 -0.07278,0.12672 -0.02905,0.28844 0.09767,0.36122 l 1.251603,0.72295 c 0.126312,0.073 0.287915,0.03 0.36122,-0.0961 0.07287,-0.12658 0.02938,-0.28827 -0.09715,-0.36122 l -1.25212,-0.72243 c -0.03732,-0.0223 -0.07956,-0.0351 -0.122991,-0.0372 -0.0074,-3.2e-4 -0.01482,-3.2e-4 -0.02223,0 z m -9.25835,0.001 c -0.0048,2.1e-4 -0.0097,5.6e-4 -0.01447,10e-4 -0.03794,0.004 -0.07461,0.0158 -0.107487,0.0351 l -1.252119,0.72244 c -0.125974,0.0735 -0.168733,0.23504 -0.0956,0.36122 0.07331,0.12616 0.234907,0.16916 0.361219,0.0961 l 1.25212,-0.72286 c 0.126722,-0.0728 0.17045,-0.2345 0.09767,-0.36121 -0.04951,-0.0856 -0.142586,-0.13638 -0.241329,-0.13178 z m -0.121957,4.16306 c 3.178469,0.004 6.346883,0 9.525518,0 0.0441,0 0.200494,0.0405 0.316259,0.14831 0.115766,0.10775 0.212908,0.26829 0.212908,0.55293 v 0.44907 c 0,0.28689 -0.09405,0.44956 -0.205155,0.55501 -0.111109,0.10545 -0.257731,0.14624 -0.324012,0.14624 -3.175,1e-5 -6.350518,1e-5 -9.525518,0 -0.06628,0 -0.212902,-0.0408 -0.324009,-0.14624 -0.111109,-0.10545 -0.203089,-0.26812 -0.203089,-0.55501 v -0.44907 c 0,-0.28464 0.09714,-0.44518 0.212905,-0.55293 0.115766,-0.10776 0.27009,-0.14831 0.314193,-0.14831 z"
         style="color:#000000;font-style:normal;font-variant:normal;font-weight:normal;font-stretch:normal;font-size:medium;line-height:normal;font-family:sans-serif;font-variant-ligatures:normal;font-variant-position:normal;font-variant-caps:normal;font-variant-numeric:normal;font-variant-alternates:normal;font-variant-east-asian:normal;font-feature-settings:normal;font-variation-settings:normal;text-indent:0;text-align:start;text-decoration:none;text-decoration-line:none;text-decoration-style:solid;text-decoration-color:#000000;letter-spacing:normal;word-spacing:normal;text-transform:none;writing-mode:lr-tb;direction:ltr;text-orientation:mixed;dominant-baseline:auto;baseline-shift:baseline;text-anchor:start;white-space:normal;shape-padding:0;shape-margin:0;inline-size:0;clip-rule:nonzero;display:inline;overflow:visible;visibility:visible;opacity:1;isolation:auto;mix-blend-mode:normal;color-interpolation:sRGB;color-interpolation-filters:linearRGB;solid-color:#000000;solid-opacity:1;vector-effect:none;fill:#000000;fill-opacity:1;fill-rule:nonzero;stroke:none;stroke-width:0.529167;stroke-linecap:round;stroke-linejoin:round;stroke-miterlimit:4;stroke-dasharray:none;stroke-dashoffset:0;stroke-opacity:1;color-rendering:auto;image-rendering:auto;shape-rendering:auto;text-rendering:auto;enable-background:accumulate;stop-color:#000000;stop-opacity:1"
         id="path983" />
    </g>
  </g>
</svg>
